Coordinates
version=1
nRows=24
nColumns=22
inDegrees=yes

Units are S.I. units (second, meters, Newtons, ...)
If the header above contains a line with 'inDegrees', this indicates whether rotational values are in degrees (yes) or radians (no).

endheader
time	pelvis_tilt	pelvis_list	pelvis_rotation	pelvis_tx	pelvis_ty	pelvis_tz	hip_flexion_r	hip_adduction_r	hip_rotation_r	knee_angle_r	ankle_angle_r	subtalar_angle_r	hip_flexion_l	hip_adduction_l	hip_rotation_l	knee_angle_l	ankle_angle_l	subtalar_angle_l	lumbar_extension	lumbar_bending	lumbar_rotation
      0.01000000	      7.20822926	      2.33304904	    179.77166961	      0.08309411	      0.95152214	      1.12204204	      9.31996989	      2.08849581	     -1.31058929	    -12.27808227	     10.69193614	     -2.21201724	      8.16423530	     -3.85748241	     -2.96220224	    -11.00655467	     10.46809572	     -3.80050229	     -1.20918721	      0.79180620	      1.14263760
      0.02000000	      7.19737477	      2.32084042	    179.76692580	      0.08308968	      0.95152726	      1.12204671	      9.32008751	      2.07716010	     -1.31513106	    -12.29844180	     10.71075285	     -2.33121309	      8.17254596	     -3.84667097	     -3.01203280	    -11.04181332	     10.45831293	     -3.85761405	     -1.22886048	      0.78545762	      1.14651600
      0.03000000	      7.19119305	      2.31848822	    179.76457519	      0.08310064	      0.95153881	      1.12205339	      9.32949688	      2.07684455	     -1.29755586	    -12.32564604	     10.69752040	     -2.34173796	      8.17034809	     -3.84219355	     -2.99144382	    -11.05050283	     10.45430004	     -3.86184295	     -1.24467087	      0.79098800	      1.15251035
      0.04000000	      7.18551192	      2.31430848	    179.76147474	      0.08310908	      0.95155033	      1.12205633	      9.33997314	      2.07482866	     -1.28972282	    -12.35312784	     10.69244668	     -2.35334234	      8.16806044	     -3.83653562	     -2.98817926	    -11.05741758	     10.45272898	     -3.86865749	     -1.25843200	      0.79169150	      1.15921719
      0.05000000	      7.17929064	      2.30925716	    179.75721060	      0.08312657	      0.95156456	      1.12205740	      9.35423579	      2.07145985	     -1.28236900	    -12.38749344	     10.69065119	     -2.36438487	      8.16525688	     -3.83070345	     -2.99028079	    -11.06403421	     10.45011873	     -3.87564447	     -1.27356613	      0.79081843	      1.16575280
      0.06000000	      7.17890398	      2.29655594	    179.74353589	      0.08314986	      0.95156836	      1.12205365	      9.38181728	      2.05953169	     -1.27705766	    -12.43216330	     10.70164025	     -2.39157006	      8.16447959	     -3.81742991	     -3.00843738	    -11.06467942	     10.44178030	     -3.89365133	     -1.28096978	      0.78061797	      1.18708340
      0.07000000	      7.17429942	      2.29634841	    179.74396353	      0.08318298	      0.95158425	      1.12205322	      9.39591490	      2.06113532	     -1.26673774	    -12.46164414	     10.69706142	     -2.39622951	      8.16370652	     -3.81672324	     -3.00735395	    -11.06811328	     10.43706403	     -3.89655901	     -1.29342722	      0.78035729	      1.18213336
      0.08000000	      7.17048113	      2.29602186	    179.74211231	      0.08322426	      0.95159923	      1.12205014	      9.41408521	      2.06190967	     -1.26365529	    -12.49607787	     10.69425333	     -2.40073632	      8.16267941	     -3.81603517	     -3.00835336	    -11.06917173	     10.43173247	     -3.89959852	     -1.30399494	      0.77862124	      1.18379323
      0.09000000	      7.17003436	      2.29707432	    179.74378876	      0.08326470	      0.95161179	      1.12203798	      9.42069442	      2.06454328	     -1.26367671	    -12.50190636	     10.69397034	     -2.40145090	      8.16432267	     -3.81769240	     -3.00950843	    -11.06653350	     10.43068101	     -3.90028054	     -1.30924264	      0.77361295	      1.18356959
      0.10000000	      7.16641505	      2.29878589	    179.74111230	      0.08332478	      0.95162536	      1.12203273	      9.44448850	      2.06601467	     -1.26513881	    -12.54470844	     10.69000474	     -2.40426862	      8.16286864	     -3.81973934	     -3.01184415	    -11.06455132	     10.42212314	     -3.90241746	     -1.31762827	      0.77343463	      1.17613334
      0.11000000	      7.16583810	      2.30045651	    179.74221217	      0.08337159	      0.95163542	      1.12201408	      9.44835288	      2.06938961	     -1.26662592	    -12.54600523	     10.69006741	     -2.40448260	      8.16448299	     -3.82206358	     -3.01241924	    -11.06283074	     10.42129114	     -3.90282734	     -1.31914015	      0.76661108	      1.17515015
      0.12000000	      7.16467806	      2.30255320	    179.74315948	      0.08342601	      0.95164419	      1.12199408	      9.45268282	      2.07231900	     -1.26848769	    -12.54917198	     10.68940186	     -2.40471383	      8.16603085	     -3.82597460	     -3.01303595	    -11.06099210	     10.41975869	     -3.90314777	     -1.32013869	      0.75988304	      1.17113158
      0.13000000	      7.16603616	      2.30696385	    179.74967591	      0.08349201	      0.95164710	      1.12199272	      9.46786535	      2.07581591	     -1.28209113	    -12.56747148	     10.68303586	     -2.40690396	      8.17292235	     -3.83034793	     -3.01477408	    -11.05961409	     10.40834749	     -3.90431511	     -1.31712503	      0.76087640	      1.13976647
      0.14000000	      7.17974233	      2.31452829	    179.77225076	      0.08357050	      0.95162829	      1.12200577	      9.48358653	      2.08022826	     -1.31882309	    -12.56156973	     10.67563944	     -2.41648021	      8.20665461	     -3.83641225	     -2.98384651	    -11.07836955	     10.40269037	     -3.91392251	     -1.29929494	      0.76152992	      1.10526986
      0.15000000	      7.17776978	      2.31564409	    179.76830390	      0.08363559	      0.95163099	      1.12197953	      9.48442364	      2.08290540	     -1.32010538	    -12.55838705	     10.67579556	     -2.41683222	      8.20803213	     -3.83915514	     -2.98355406	    -11.07858264	     10.40293338	     -3.91427031	     -1.29820731	      0.75543045	      1.10083652
      0.16000000	      7.17878278	      2.31865126	    179.77747042	      0.08369764	      0.95162859	      1.12197684	      9.47678151	      2.08572091	     -1.32254515	    -12.53597932	     10.67294789	     -2.42282372	      8.21978048	     -3.84273701	     -2.98470696	    -11.08681990	     10.40377992	     -3.91685551	     -1.29131596	      0.75378542	      1.06751516
      0.17000000	      7.17800894	      2.32769074	    179.78540617	      0.08376791	      0.95162802	      1.12197675	      9.47028972	      2.09475148	     -1.33533581	    -12.51788779	     10.66147772	     -2.44231123	      8.23309670	     -3.85167408	     -2.96753352	    -11.10244937	     10.40580808	     -3.92146150	     -1.28651998	      0.76086744	      1.04321408
      0.18000000	      7.17550659	      2.32797781	    179.77879997	      0.08384473	      0.95163039	      1.12195771	      9.47121328	      2.09583268	     -1.33604902	    -12.51384865	     10.66171935	     -2.44309165	      8.23432421	     -3.85326182	     -2.96766874	    -11.10276120	     10.40565396	     -3.92164986	     -1.28557756	      0.75768985	      1.03807414
      0.19000000	      7.17580013	      2.32819399	    179.77674121	      0.08390482	      0.95163030	      1.12195582	      9.46355780	      2.09616434	     -1.32886344	    -12.49257139	     10.65978630	     -2.44888891	      8.24145557	     -3.85413151	     -2.97799903	    -11.10750256	     10.40304601	     -3.92327110	     -1.27669367	      0.75786480	      1.01785186
      0.20000000	      7.17360660	      2.32858735	    179.76958904	      0.08399341	      0.95163513	      1.12194566	      9.46489466	      2.09701590	     -1.32916526	    -12.48735024	     10.65897753	     -2.44979478	      8.24433837	     -3.85489552	     -2.97764213	    -11.10850979	     10.40254536	     -3.92358228	     -1.27778301	      0.75716427	      1.01650836
      0.21000000	      7.17558497	      2.33199998	    179.75973219	      0.08406544	      0.95163655	      1.12193728	      9.45691418	      2.10246583	     -1.31344920	    -12.45944464	     10.64424348	     -2.45619492	      8.25800318	     -3.86000038	     -2.99018088	    -11.12330544	     10.39852483	     -3.92787414	     -1.26902668	      0.76061785	      1.02838300
      0.22000000	      7.17275642	      2.33194880	    179.75013612	      0.08414676	      0.95164182	      1.12193676	      9.45821818	      2.10249435	     -1.31268198	    -12.45706782	     10.64274207	     -2.45682102	      8.25960539	     -3.85978629	     -2.99026117	    -11.12477440	     10.39860179	     -3.92843521	     -1.26808139	      0.76325004	      1.02860513
      0.23000000	      7.17348029	      2.33600241	    179.72868790	      0.08422913	      0.95164327	      1.12190993	      9.45918851	      2.11029951	     -1.29148980	    -12.44549389	     10.62583835	     -2.45996112	      8.27094621	     -3.86749993	     -3.00461770	    -11.14076087	     10.40063539	     -3.93455226	     -1.26166298	      0.76676404	      1.07263303
      0.24000000	      7.16963681	      2.33536792	    179.71879014	      0.08430022	      0.95164968	      1.12192299	      9.45982990	      2.10923781	     -1.28894955	    -12.44517771	     10.62452080	     -2.46039545	      8.27154144	     -3.86548270	     -3.00618833	    -11.14366807	     10.40099259	     -3.93517882	     -1.25759035	      0.77223032	      1.07480387
